<?xml version="1.0" encoding="UTF-8"?>
<svg width="32px" height="24px" viewBox="0 0 32 24" version="1.1" xmlns="http://www.w3.org/2000/svg" xmlns:xlink="http://www.w3.org/1999/xlink">
    <title>”</title>
    <g id="Page-1" stroke="none" stroke-width="1" fill="none" fill-rule="evenodd">
        <g id="Artboard" transform="translate(-765.000000, -7048.000000)" fill="#C4C1B4" fill-rule="nonzero">
            <g id="”" transform="translate(0.000000, 39.995000)">
                <path d="M766.4,7031.36 C773.04,7029.84 779.04,7025.2 779.04,7017.76 C779.04,7010.8 774.4,7008 771.12,7008 C768.08,7008 765.6,7010.24 765.6,7012.96 C765.6,7014.8 766.64,7016.08 768,7016.48 C769.92,7016.96 772.4,7018.08 772.4,7021.44 C772.4,7025.2 768.48,7027.84 765.6,7028.88 C764.72,7029.44 765.04,7031.2 766.4,7031.36 Z M783.92,7031.36 C790.56,7029.84 796.56,7025.2 796.56,7017.76 C796.56,7010.8 791.92,7008 788.64,7008 C785.6,7008 783.12,7010.24 783.12,7012.96 C783.12,7014.8 784.16,7016.08 785.52,7016.48 C787.44,7016.96 789.92,7018.08 789.92,7021.44 C789.92,7025.2 786,7027.84 783.12,7028.88 C782.24,7029.44 782.56,7031.2 783.92,7031.36 Z"></path>
            </g>
        </g>
    </g>
</svg>