<?xml version="1.0" encoding="UTF-8"?>
<svg width="32px" height="24px" viewBox="0 0 32 24" version="1.1" xmlns="http://www.w3.org/2000/svg" xmlns:xlink="http://www.w3.org/1999/xlink">
    <title>“</title>
    <g id="Page-1" stroke="none" stroke-width="1" fill="none" fill-rule="evenodd">
        <g id="Artboard" transform="translate(-545.000000, -6898.000000)" fill="#C4C1B4" fill-rule="nonzero">
            <g id="“" transform="translate(0.000000, 39.995000)">
                <path d="M553.12,6881.89 C556.16,6881.89 558.64,6879.65 558.64,6876.93 C558.64,6875.09 557.6,6873.81 556.24,6873.41 C554.32,6872.93 551.84,6871.81 551.84,6868.45 C551.84,6864.69 555.76,6862.05 558.64,6861.01 C559.52,6860.45 559.2,6858.69 557.84,6858.53 C551.2,6860.05 545.2,6864.69 545.2,6872.13 C545.2,6879.09 549.84,6881.89 553.12,6881.89 Z M570.64,6881.89 C573.68,6881.89 576.16,6879.65 576.16,6876.93 C576.16,6875.09 575.12,6873.81 573.76,6873.41 C571.84,6872.93 569.36,6871.81 569.36,6868.45 C569.36,6864.69 573.28,6862.05 576.16,6861.01 C577.04,6860.45 576.72,6858.69 575.36,6858.53 C568.72,6860.05 562.72,6864.69 562.72,6872.13 C562.72,6879.09 567.36,6881.89 570.64,6881.89 Z"></path>
            </g>
        </g>
    </g>
</svg>