<?xml version="1.0" encoding="UTF-8"?>
<svg width="1440px" height="1480px" viewBox="0 0 1440 1480" version="1.1" xmlns="http://www.w3.org/2000/svg" xmlns:xlink="http://www.w3.org/1999/xlink">
    <title>footer.svg</title>
    <g id="Page-1" stroke="none" stroke-width="1" fill="none" fill-rule="evenodd">
        <g id="Artboard" transform="translate(0.000000, -10400.000000)" fill="#FFFFFF">
            <g id="footer" transform="translate(-9.000000, 10400.000000)">
                <path d="M1.555395,175.072596 L9.717945,170.990556 L21.96177,167.929808 C24.96683,165.834048 27.347695,164.473889 29.104365,163.849332 C31.73937,162.910932 38.410545,160.30218 40.32678,159.767292 C41.60524,159.411743 44.32609,158.731924 48.48933,157.727836 L58.693245,156.706544 L75.018345,156.706544 L89.30208,152.626068 L106.647135,146.504572 L131.134785,130.17954 L159.702255,112.83478 L179.088675,99.570496 L189.291135,100.590224 L198.47364,100.590224 L203.57487,99.570496 L208.677555,97.529476 L214.79874,93.449 L228.06252,87.327504 L232.143795,84.265192 L236.22507,80.184716 L243.367665,71.002472 L247.44894,67.941724 L252.55017,65.900704 L260.71272,64.879412 C264.05146,64.8835827 266.091855,64.8835827 266.833905,64.879412 C267.576925,64.876284 271.6582,64.876284 279.07773,64.879412 L289.28019,64.879412 L298.46415,62.838392 L307.646655,58.757916 L320.910435,52.63642 L328.051575,51.615128 L337.235535,50.5954 L344.376675,51.615128 L352.539225,52.63642 L362.74314,56.716896 L370.904235,60.798936 L378.04683,62.838392 L385.189425,63.859684 L396.41184,68.961452 L409.67562,76.102676 L421.919445,82.224172 L430.081995,84.265192 L437.22459,86.306212 L443.345775,85.286484 L449.468415,86.306212 L454.569645,90.388252 L460.69083,94.468728 L463.75215,97.529476 L468.85338,99.570496 L475.995975,101.609952 L480.07725,104.672264 L489.259755,111.813488 L501.50358,127.118792 L511.70604,136.301036 L522.92991,138.342056 L530.072505,143.443824 L541.29492,148.544028 L557.62002,158.747564 L568.84389,163.849332 L577.004985,165.888788 L585.167535,166.91008 L595.37145,166.91008 L612.716505,166.91008 L618.83769,166.91008 L620.879055,164.86906 C617.492785,164.733513 614.771935,164.393604 612.716505,163.849332 C609.63336,163.032924 597.94098,162.066372 596.391405,161.808312 C594.84183,161.550252 593.478495,160.57588 591.290175,159.767292 C589.830325,159.229276 587.109475,158.549457 583.127625,157.727836 L575.98503,154.665524 L565.78257,150.585048 L557.62002,146.504572 L546.39615,138.342056 L557.62002,136.301036 L572.925165,130.17954 L578.026395,127.118792 C582.219705,125.856123 584.940555,125.515692 586.188945,126.0975 C587.436365,126.679308 590.157215,127.359648 594.351495,128.13852 L603.534,130.17954 L613.73646,133.240288 L619.857645,136.301036 L625.980285,136.301036 L637.2027,132.218996 L653.5278,126.0975 L661.69035,122.017024 L666.79158,119.976004 L672.91422,119.976004 L679.035405,120.995732 L687.197955,122.017024 L700.461735,118.956276 L706.584375,116.915256 L717.80679,111.813488 L726.989295,107.731448 L733.111935,105.691992 L738.213165,104.672264 L744.33435,104.672264 L751.476945,110.79376 L758.61954,113.854508 L765.76068,114.874236 L774.94464,114.874236 L787.18701,112.83478 L771.88332,125.077772 L753.51831,132.218996 L737.19321,136.301036 L724.949385,141.402804 L715.76688,147.5243 L699.44178,157.727836 C715.12377,152.124545 723.626305,149.063276 724.949385,148.544028 C726.271495,148.025823 734.093575,145.645415 748.415625,141.402804 L764.740725,136.301036 L774.94464,130.17954 L804.532065,112.83478 C815.810255,104.496575 822.272395,100.075147 823.918485,99.570496 C825.564575,99.0658453 835.76752,93.9640773 854.52732,84.265192 L865.75119,75.082948 L875.95365,73.041928 L894.31866,71.002472 L904.522575,72.0222 L917.786355,72.0222 L929.00877,74.06322 L935.13141,75.082948 L942.274005,77.123968 L949.415145,80.184716 L956.55774,82.224172 L969.82152,83.245464 L954.516375,97.529476 L946.353825,104.672264 L927.988815,116.915256 C922.317225,118.639827 918.57642,119.660076 916.7664,119.976004 C914.95638,120.291932 912.575515,121.652612 909.623805,124.058044 L897.37998,131.199268 L880.034925,144.463552 L865.75119,153.645796 L848.406135,162.829604 L858.608595,163.849332 L866.771145,162.829604 L881.05488,154.665524 L894.31866,146.504572 L906.562485,136.301036 L918.80631,130.17954 L927.988815,126.0975 L941.252595,118.956276 L961.65897,103.650972 L979.004025,83.245464 L989.206485,72.0222 L1001.45031,63.859684 L1013.69413,53.656148 L1031.03919,39.372136 L1054.50689,25.088124 L1069.81057,16.925608 L1088.17558,9.784384 L1095.31818,3.662888 L1102.46078,0.600576 L1109.60191,1.620304 L1120.82578,2.641596 L1131.02824,5.702344 L1141.23216,5.702344 L1147.35334,4.682616 L1156.53585,1.620304 L1163.67845,0.600576 L1186.12473,5.702344 L1206.53111,11.82384 C1213.94967,18.1788933 1218.03094,21.580072 1218.77493,22.027376 C1219.51892,22.47468 1224.96062,25.535428 1235.10003,31.20962 L1251.42513,34.270368 L1265.70887,33.25064 L1295.29775,29.170164 L1300.39898,27.129144 L1316.72408,26.107852 L1328.9679,28.148872 L1338.15041,32.229348 L1347.33291,37.331116 L1363.65801,52.63642 L1372.84051,57.738188 L1386.10429,63.859684 L1399.36807,67.941724 L1404.46931,72.0222 L1415.69317,75.082948 L1430.99687,80.184716 L1441.20078,85.286484 L1444.26065,86.306212 L1448.34192,87.327504 L1454.46456,91.40798 L1454.46456,1563.39786 L0.53544,1563.39786 L1.555395,175.072596 Z" id="footer.svg"></path>
            </g>
        </g>
    </g>
</svg>